<svg width="44" height="44" viewBox="0 0 44 44" fill="none" xmlns="http://www.w3.org/2000/svg">
<path d="M5.21466 35.6952V19.215C5.21466 18.2037 6.03448 17.3839 7.04578 17.3839H36.9542C37.9655 17.3839 38.7853 18.2037 38.7853 19.215V35.6952C38.7853 36.7065 37.9655 37.5263 36.9542 37.5263H7.04579C6.03448 37.5263 5.21466 36.7065 5.21466 35.6952Z" stroke="#161413" stroke-width="2" stroke-linecap="round"/>
<path d="M16.9977 29.1002L18.8167 30.9192C19.1935 31.2959 19.8043 31.2959 20.181 30.9192L27.0023 24.0979" stroke="#27D374" stroke-width="2" stroke-linecap="round"/>
<path d="M8.57172 17.3837L8.57172 14.1793C8.57172 13.168 9.39154 12.3481 10.4028 12.3481H33.5971C34.6084 12.3481 35.4282 13.168 35.4282 14.1793V17.3837" stroke="#161413" stroke-width="2" stroke-linecap="round"/>
<path d="M12.8939 12.107V9.2096C12.8939 8.29521 13.6352 7.55396 14.5496 7.55396H29.4503C30.3647 7.55396 31.106 8.29521 31.106 9.2096V12.107" stroke="#161413" stroke-width="2" stroke-linecap="round"/>
</svg>
