<svg width="44" height="44" viewBox="0 0 44 44" fill="none" xmlns="http://www.w3.org/2000/svg">
<g clip-path="url(#clip0_96_49)">
<path d="M16.9125 11.8287C16.9125 9.02004 19.1895 6.74121 22 6.74121C24.8086 6.74121 27.0875 9.01821 27.0875 11.8287C27.0875 14.6374 24.8105 16.9162 22 16.9162C19.1895 16.9125 16.9125 14.6355 16.9125 11.8287Z" stroke="#27D374" stroke-width="2" stroke-linecap="round" stroke-linejoin="round"/>
<path d="M4.58331 32.1714C4.58331 29.3627 6.86031 27.0839 9.67081 27.0839C12.4795 27.0839 14.7583 29.3609 14.7583 32.1714C14.7565 34.98 12.4813 37.2589 9.67081 37.2589C6.86031 37.2589 4.58331 34.9819 4.58331 32.1714V32.1714Z" stroke="#161413" stroke-width="2" stroke-linecap="round" stroke-linejoin="round"/>
<path d="M29.2435 32.1714C29.2435 29.3627 31.5205 27.0839 34.331 27.0839C37.1397 27.0839 39.4185 29.3609 39.4185 32.1714C39.4185 34.98 37.1415 37.2589 34.331 37.2589C31.5187 37.2589 29.2435 34.9819 29.2435 32.1714V32.1714Z" stroke="#161413" stroke-width="2" stroke-linecap="round" stroke-linejoin="round"/>
<path d="M15.565 21.8533L11.88 27.6099" stroke="#161413" stroke-width="2" stroke-linecap="round" stroke-linejoin="round"/>
<path d="M24.75 16.0967L28.435 21.8533" stroke="#27D374" stroke-width="2" stroke-linecap="round" stroke-linejoin="round"/>
<path d="M29.2417 32.175H22" stroke="#161413" stroke-width="2" stroke-linecap="round" stroke-linejoin="round"/>
</g>
<defs>
<clipPath id="clip0_96_49">
<rect width="44" height="44" fill="white"/>
</clipPath>
</defs>
</svg>
