<svg width="128" height="40" viewBox="0 0 128 40" fill="none" xmlns="http://www.w3.org/2000/svg">
<g clip-path="url(#clip0_405_6672)">
<path d="M17.5592 15.6995C17.4557 15.7086 17.3515 15.6934 17.2549 15.6552C17.1583 15.617 17.0719 15.5568 17.0027 15.4795L16.1267 14.3761C16.0088 14.2273 15.9709 13.9617 16.0377 13.785L16.5575 12.4739C16.6013 12.38 16.6665 12.2975 16.7478 12.2331C16.8292 12.1686 16.9244 12.124 17.0261 12.1028L18.4207 11.8973C18.6099 11.8695 18.8593 11.9684 18.9772 12.1173L19.8532 13.2206C19.9129 13.3055 19.952 13.4031 19.9672 13.5058C19.9825 13.6084 19.9736 13.7131 19.9411 13.8117L19.4213 15.1228C19.3775 15.2168 19.3123 15.2992 19.231 15.3637C19.1497 15.4281 19.0544 15.4727 18.9528 15.4939L17.5581 15.6995H17.5592Z" fill="white"/>
<path d="M20.9473 11.3946C20.758 11.4224 20.5087 11.3235 20.3907 11.1746L19.5949 10.1724C19.5352 10.0875 19.4961 9.98982 19.4809 9.8872C19.4656 9.78458 19.4745 9.67982 19.507 9.58126L19.9745 8.39237C20.0446 8.21459 20.2549 8.04792 20.4419 8.02126L21.7086 7.83459C21.8121 7.82551 21.9163 7.84067 22.0129 7.87886C22.1095 7.91705 22.1959 7.97723 22.2651 8.05459L23.0587 9.05459C23.1184 9.13949 23.1575 9.23714 23.1727 9.33976C23.188 9.44238 23.1791 9.54714 23.1466 9.6457L22.6791 10.8324C22.6353 10.9263 22.5701 11.0088 22.4888 11.0732C22.4075 11.1376 22.3122 11.1822 22.2106 11.2035L20.9461 11.3901L20.9473 11.3946Z" fill="white"/>
<path d="M22.7168 16.6445C22.5276 16.6723 22.2794 16.5734 22.1603 16.4245L21.1619 15.1645C21.0439 15.0156 21.0061 14.7501 21.0729 14.5734L21.6628 13.0823C21.7066 12.988 21.7719 12.9052 21.8534 12.8406C21.935 12.776 22.0305 12.7313 22.1325 12.7101L23.7263 12.4734C23.9156 12.4456 24.1638 12.5445 24.2829 12.6934L25.2824 13.9534C25.3993 14.1023 25.4382 14.369 25.3714 14.5445L24.7815 16.039C24.7114 16.2168 24.501 16.3834 24.314 16.4101L22.7224 16.6434L22.7168 16.6445Z" fill="white"/>
<path d="M26.0761 12.1775C25.9722 12.1869 25.8675 12.1719 25.7705 12.1337C25.6735 12.0955 25.5868 12.0351 25.5173 11.9575L24.7671 11.013C24.6503 10.8641 24.6113 10.5986 24.6781 10.4219L25.12 9.29968C25.1639 9.20558 25.2292 9.12303 25.3108 9.0586C25.3923 8.99417 25.4878 8.94965 25.5897 8.92857L26.7851 8.75079C26.8889 8.74135 26.9936 8.75634 27.0906 8.79454C27.1876 8.83275 27.2744 8.89311 27.3438 8.97079L28.0951 9.91523C28.2131 10.0641 28.2509 10.3297 28.1842 10.5063L27.7389 11.6286C27.695 11.7227 27.6297 11.8052 27.5481 11.8696C27.4666 11.9341 27.3711 11.9786 27.2692 11.9997L26.0761 12.1775Z" fill="white"/>
<path d="M29.7275 8.66629C29.624 8.67537 29.5198 8.66021 29.4232 8.62201C29.3266 8.58382 29.2402 8.52365 29.171 8.44629L28.5922 7.71962C28.5327 7.63462 28.4938 7.53693 28.4787 7.43432C28.4637 7.3317 28.4728 7.22699 28.5054 7.12851L28.8504 6.26518C28.8944 6.17108 28.9597 6.08853 29.0413 6.0241C29.1228 5.95967 29.2183 5.91514 29.3201 5.89406L30.235 5.75851C30.3387 5.74925 30.4432 5.76432 30.54 5.80252C30.6368 5.84072 30.7233 5.90099 30.7927 5.97851L31.3715 6.70629C31.4906 6.85518 31.5295 7.12073 31.4605 7.29518L31.1188 8.1574C31.075 8.25136 31.0098 8.33383 30.9285 8.39825C30.8471 8.46267 30.7518 8.50727 30.6502 8.52851L29.7308 8.66518L29.7275 8.66629Z" fill="white"/>
<path d="M33.3181 5.99275C33.2144 6.002 33.1099 5.98693 33.0131 5.94873C32.9163 5.91053 32.8298 5.85027 32.7604 5.77275L32.4777 5.41497C32.418 5.33006 32.379 5.23242 32.3637 5.1298C32.3484 5.02718 32.3574 4.92242 32.3898 4.82386L32.5567 4.39941C32.6269 4.22163 32.8372 4.05497 33.0242 4.0283L33.4761 3.96163C33.5798 3.95238 33.6842 3.96745 33.7811 4.00565C33.8779 4.04385 33.9644 4.10411 34.0338 4.18163L34.3176 4.53719C34.3773 4.62209 34.4163 4.71974 34.4316 4.82236C34.4469 4.92498 34.4379 5.02974 34.4055 5.1283L34.2397 5.55608C34.1695 5.73386 33.9592 5.90052 33.7722 5.92719L33.3203 5.99386L33.3181 5.99275Z" fill="white"/>
<path d="M34.4815 10.4083C34.3779 10.4177 34.2735 10.4028 34.1767 10.3648C34.0799 10.3268 33.9933 10.2667 33.9239 10.1894L33.5955 9.77828C33.4775 9.62939 33.4375 9.36383 33.5065 9.18939L33.699 8.7005C33.743 8.60674 33.8082 8.52449 33.8896 8.46027C33.9709 8.39605 34.0661 8.35162 34.1676 8.3305L34.6885 8.25272C34.8777 8.22494 35.1271 8.32383 35.2473 8.47272L35.5756 8.88383C35.6353 8.96851 35.6745 9.06592 35.6899 9.16833C35.7054 9.27075 35.6967 9.37534 35.6647 9.47383L35.4721 9.9605C35.4283 10.0545 35.3631 10.1369 35.2817 10.2014C35.2004 10.2658 35.1051 10.3104 35.0035 10.3316L34.4804 10.4094L34.4815 10.4083Z" fill="white"/>
<path d="M37.6013 9.08606C37.4977 9.095 37.3934 9.07967 37.2968 9.04128C37.2002 9.0029 37.1139 8.94252 37.0448 8.86495L36.9335 8.72606C36.8166 8.57717 36.7776 8.31051 36.8466 8.13495L36.9134 7.97051C36.9575 7.87662 37.0229 7.79429 37.1044 7.73006C37.186 7.66583 37.2814 7.62147 37.3831 7.60051L37.5556 7.57495C37.7449 7.54717 37.9931 7.64717 38.1122 7.79495L38.2235 7.93162C38.3403 8.08051 38.3793 8.34606 38.3125 8.52273L38.2457 8.68939C38.1745 8.86717 37.9652 9.03384 37.776 9.05939L37.6024 9.08495L37.6013 9.08606Z" fill="white"/>
<path d="M30.9961 13.3554C30.8924 13.3646 30.788 13.3495 30.6912 13.3113C30.5944 13.2732 30.5078 13.2129 30.4385 13.1354L29.8185 12.3543C29.7588 12.2693 29.7198 12.1717 29.7045 12.0691C29.6892 11.9665 29.6982 11.8617 29.7306 11.7631L30.0979 10.8365C30.1419 10.7424 30.2072 10.6598 30.2887 10.5954C30.3703 10.531 30.4658 10.4864 30.5676 10.4654L31.5538 10.3209C31.6573 10.3118 31.7615 10.327 31.8581 10.3652C31.9547 10.4034 32.0411 10.4636 32.1103 10.5409L32.7303 11.322C32.79 11.4069 32.829 11.5046 32.8443 11.6072C32.8596 11.7098 32.8506 11.8146 32.8182 11.9131L32.4509 12.8387C32.4071 12.9327 32.3419 13.0151 32.2605 13.0796C32.1792 13.144 32.0839 13.1886 31.9823 13.2098L30.9939 13.3543L30.9961 13.3554Z" fill="white"/>
<path d="M34.9516 14.6138C34.8482 14.623 34.744 14.608 34.6474 14.57C34.5508 14.532 34.4644 14.4721 34.3951 14.3949L33.9799 13.8749C33.9204 13.7899 33.8815 13.6922 33.8664 13.5896C33.8514 13.487 33.8605 13.3823 33.8931 13.2838L34.1402 12.6638C34.1841 12.5697 34.2495 12.4871 34.331 12.4227C34.4125 12.3583 34.508 12.3137 34.6099 12.2927L35.2777 12.196C35.3811 12.1868 35.4853 12.2018 35.5819 12.2398C35.6785 12.2778 35.7649 12.3377 35.8342 12.4149L36.2505 12.9371C36.31 13.0221 36.3489 13.1198 36.364 13.2224C36.379 13.325 36.3699 13.4297 36.3373 13.5282L36.0924 14.1449C36.0485 14.239 35.9832 14.3215 35.9016 14.386C35.8201 14.4504 35.7246 14.4949 35.6227 14.516L34.9616 14.6127L34.9516 14.6138Z" fill="white"/>
<path d="M38.538 13.8526C38.3488 13.8804 38.0994 13.7815 37.9815 13.6338L37.6531 13.2193C37.5351 13.0704 37.4973 12.8038 37.5641 12.6282L37.7577 12.136C37.8279 11.9582 38.0382 11.7915 38.2252 11.766L38.7506 11.6882C38.8543 11.6789 38.9587 11.694 39.0555 11.7322C39.1523 11.7704 39.2389 11.8307 39.3082 11.9082L39.6354 12.3193C39.7534 12.4682 39.7913 12.7338 39.7245 12.9082L39.5308 13.4004C39.4868 13.4946 39.4212 13.5773 39.3395 13.6417C39.2577 13.7062 39.162 13.7506 39.06 13.7715L38.5369 13.8493L38.538 13.8526Z" fill="white"/>
<path d="M28.5378 3.46983C28.4341 3.47909 28.3297 3.46402 28.2329 3.42582C28.136 3.38762 28.0495 3.32735 27.9802 3.24983L27.7275 2.93428C27.6676 2.84946 27.6284 2.75186 27.6129 2.64924C27.5974 2.54662 27.6062 2.44181 27.6385 2.34316L27.7876 1.96983C27.8314 1.87587 27.8966 1.7934 27.978 1.72898C28.0593 1.66456 28.1546 1.61996 28.2562 1.59872L28.6524 1.53983C28.8417 1.51205 29.091 1.61094 29.2112 1.75983L29.4638 2.07539C29.5807 2.22428 29.6197 2.48983 29.5529 2.66428L29.4037 3.03872C29.3598 3.13282 29.2945 3.21537 29.2129 3.2798C29.1314 3.34423 29.0359 3.38875 28.934 3.40983L28.5367 3.46872L28.5378 3.46983Z" fill="white"/>
<path d="M23.5473 2.43515C23.358 2.46293 23.1098 2.36404 22.9907 2.21515L22.5789 1.69515C22.4609 1.54627 22.4209 1.2796 22.4899 1.10404L22.7325 0.492932C22.8037 0.315154 23.0108 0.148487 23.2 0.121821L23.86 0.024043C23.9635 0.0149637 24.0677 0.0301232 24.1643 0.0683154C24.261 0.106508 24.3473 0.166679 24.4165 0.244043L24.8261 0.762932C24.8857 0.847929 24.9245 0.94562 24.9396 1.04824C24.9547 1.15085 24.9455 1.25556 24.913 1.35404L24.6703 1.96738C24.6263 2.0616 24.5607 2.14424 24.479 2.20867C24.3972 2.27311 24.3015 2.31757 24.1995 2.33849L23.5473 2.43627V2.43515Z" fill="white"/>
<path d="M18.1349 2.56245C17.9457 2.59023 17.6964 2.49134 17.5784 2.34245L17.1176 1.76245C17.0581 1.67746 17.0192 1.57976 17.0041 1.47715C16.9891 1.37453 16.9982 1.26982 17.0308 1.17134L17.3046 0.484675C17.3484 0.39071 17.4136 0.308242 17.4949 0.243821C17.5763 0.179399 17.6715 0.1348 17.7732 0.113564L18.5078 0.00467518C18.697 -0.0231026 18.9452 0.0757863 19.0643 0.224675L19.524 0.804675C19.5837 0.88958 19.6228 0.987226 19.638 1.08984C19.6533 1.19246 19.6443 1.29722 19.6119 1.39579L19.3403 2.08245C19.2702 2.26023 19.0598 2.4269 18.8729 2.45356L18.1382 2.56245H18.1349Z" fill="white"/>
<path d="M13.7596 2.69723C13.5703 2.72501 13.321 2.62612 13.203 2.47723L12.9604 2.16946C12.9005 2.08442 12.8614 1.98658 12.8461 1.88375C12.8308 1.78092 12.8398 1.67596 12.8725 1.57723L13.0172 1.21057C13.0873 1.03279 13.2976 0.866122 13.4846 0.839456L13.8764 0.7839C13.9801 0.774643 14.0845 0.789715 14.1814 0.827913C14.2782 0.866112 14.3647 0.926378 14.4341 1.0039L14.6812 1.31501C14.7991 1.4639 14.8392 1.72834 14.768 1.9039L14.6233 2.27057C14.5793 2.36466 14.514 2.44721 14.4324 2.51164C14.3509 2.57607 14.2554 2.6206 14.1536 2.64168L13.7618 2.70057L13.7596 2.69723Z" fill="white"/>
<path d="M19.7496 6.55382C19.5603 6.5816 19.311 6.48271 19.193 6.33382L18.6476 5.64494C18.5879 5.56003 18.5489 5.46238 18.5336 5.35977C18.5183 5.25715 18.5273 5.15239 18.5597 5.05382L18.8825 4.23938C18.9526 4.0616 19.163 3.89494 19.35 3.86938L20.2204 3.74271C20.324 3.73377 20.4282 3.7491 20.5249 3.78749C20.6215 3.82588 20.7078 3.88626 20.7769 3.96382L21.3201 4.64827C21.438 4.79716 21.4781 5.06271 21.4091 5.23938L21.0752 6.05382C21.0051 6.2316 20.7947 6.39827 20.6077 6.42494L19.7395 6.55382H19.7496Z" fill="white"/>
<path d="M24.7593 7.38904C24.6556 7.39829 24.5511 7.38322 24.4543 7.34502C24.3575 7.30682 24.271 7.24656 24.2016 7.16904L23.6228 6.44237C23.5049 6.29348 23.4648 6.02792 23.5338 5.85126L23.8744 4.98792C23.9445 4.81015 24.1549 4.64348 24.3419 4.61681L25.2635 4.48126C25.3673 4.47182 25.472 4.48681 25.569 4.52501C25.6661 4.56322 25.7528 4.62358 25.8222 4.70126L26.401 5.42904C26.4607 5.51394 26.4998 5.61159 26.515 5.71421C26.5303 5.81682 26.5214 5.92158 26.4889 6.02015L26.1461 6.88237C26.1022 6.97646 26.0368 7.05902 25.9553 7.12345C25.8737 7.18788 25.7782 7.2324 25.6764 7.25348L24.7582 7.38904H24.7593Z" fill="white"/>
<path d="M16.126 10.6091C15.9368 10.6369 15.6875 10.538 15.5695 10.3891L14.9484 9.6058C14.8887 9.52089 14.8497 9.42324 14.8344 9.32063C14.8191 9.21801 14.8281 9.11325 14.8605 9.01468L15.2278 8.08468C15.2979 7.90691 15.5083 7.74024 15.6953 7.71357L16.6881 7.56913C16.8773 7.54135 17.1266 7.64024 17.2446 7.78913L17.8646 8.57024C17.9243 8.65514 17.9634 8.75279 17.9786 8.85541C17.9939 8.95803 17.985 9.06279 17.9525 9.16135L17.5852 10.0914C17.5416 10.1854 17.4767 10.268 17.3955 10.3326C17.3144 10.3972 17.2193 10.4421 17.1177 10.4636L16.1249 10.6114L16.126 10.6091Z" fill="white"/>
<path d="M14.9228 6.28241C14.7336 6.31019 14.4843 6.2113 14.3663 6.06241L13.9767 5.57352C13.917 5.48862 13.878 5.39097 13.8627 5.28835C13.8474 5.18573 13.8564 5.08097 13.8888 4.98241L14.1203 4.39685C14.164 4.30268 14.2291 4.21999 14.3105 4.15537C14.3918 4.09075 14.4872 4.04598 14.5889 4.02463L15.2122 3.93241C15.4014 3.90463 15.6496 4.00352 15.7687 4.15241L16.1583 4.64574C16.2178 4.73074 16.2567 4.82843 16.2718 4.93105C16.2868 5.03366 16.2777 5.13837 16.2451 5.23685L16.0136 5.81796C15.9698 5.91193 15.9046 5.9944 15.8233 6.05882C15.7419 6.12324 15.6466 6.16784 15.545 6.18908L14.9239 6.2813L14.9228 6.28241Z" fill="white"/>
<path d="M10.292 5.96969C10.1028 5.99747 9.85346 5.89858 9.73548 5.74969L9.40936 5.33858C9.34964 5.25368 9.31059 5.15603 9.29533 5.05341C9.28006 4.95079 9.289 4.84603 9.32143 4.74747L9.5151 4.25858C9.58522 4.0808 9.79558 3.91414 9.98258 3.88858L10.5013 3.81303C10.6049 3.80408 10.7091 3.81942 10.8057 3.8578C10.9024 3.89619 10.9887 3.95657 11.0578 4.03414L11.3839 4.44525C11.4434 4.53024 11.4823 4.62794 11.4973 4.73055C11.5124 4.83317 11.5033 4.93788 11.4707 5.03636L11.2782 5.52303C11.2343 5.61699 11.1692 5.69946 11.0878 5.76388C11.0065 5.8283 10.9112 5.8729 10.8096 5.89414L10.2909 5.97191L10.292 5.96969Z" fill="white"/>
<path d="M7.08123 5.98415C6.97753 5.9934 6.87311 5.97833 6.77628 5.94013C6.67946 5.90193 6.59293 5.84167 6.52359 5.76415L6.3455 5.54192C6.22752 5.39303 6.18745 5.12859 6.25646 4.95303L6.36109 4.6897C6.40492 4.59574 6.47009 4.51327 6.55143 4.44885C6.63278 4.38443 6.72805 4.33983 6.82968 4.31859L7.11239 4.27637C7.2158 4.26657 7.32006 4.28141 7.41661 4.31965C7.51316 4.3579 7.59925 4.41846 7.6678 4.49637L7.84143 4.71859C7.90114 4.80372 7.94009 4.9016 7.95516 5.00443C7.97024 5.10725 7.96102 5.21217 7.92825 5.31081L7.82474 5.57303C7.75462 5.75081 7.54425 5.91748 7.35726 5.94415L7.08123 5.98415Z" fill="white"/>
<path d="M11.1051 10.0779C11.0016 10.087 10.8974 10.0718 10.8008 10.0336C10.7042 9.99546 10.6178 9.93529 10.5486 9.85792L10.1346 9.33792C10.0166 9.18903 9.97651 8.92348 10.0455 8.74681L10.2904 8.13014C10.3605 7.95237 10.5709 7.7857 10.7579 7.76014L11.4179 7.66459C11.5215 7.65564 11.6258 7.67098 11.7224 7.70937C11.819 7.74775 11.9053 7.80813 11.9744 7.8857L12.3829 8.40125C12.5009 8.55014 12.5387 8.8157 12.4697 8.99237L12.2249 9.60903C12.181 9.703 12.1159 9.78547 12.0345 9.84989C11.9532 9.91431 11.8579 9.95891 11.7563 9.98014L11.1029 10.0779H11.1051Z" fill="white"/>
<path d="M6.87835 9.78202C6.77466 9.79127 6.67023 9.7762 6.57341 9.738C6.47659 9.69981 6.39006 9.63954 6.32072 9.56202L5.96788 9.11757C5.8499 8.96868 5.81206 8.70313 5.88106 8.52868L6.10367 7.99979C6.14775 7.90591 6.21316 7.82357 6.29469 7.75934C6.37623 7.69511 6.47166 7.65076 6.57338 7.62979L7.1299 7.54757C7.23359 7.53831 7.33802 7.55339 7.43484 7.59158C7.53166 7.62978 7.6182 7.69005 7.68753 7.76757L8.04148 8.21202C8.15946 8.3609 8.19953 8.62646 8.13052 8.80091L7.92127 9.32757C7.85115 9.50535 7.63967 9.67202 7.45379 9.69757L6.89282 9.77979L6.87835 9.78202Z" fill="white"/>
<path d="M12.4415 14.8474C12.338 14.8565 12.2338 14.8414 12.1372 14.8032C12.0406 14.765 11.9542 14.7048 11.885 14.6274L11.1615 13.7163C11.102 13.6313 11.0632 13.5336 11.0481 13.431C11.033 13.3284 11.0421 13.2237 11.0747 13.1252L11.5043 12.0419C11.5482 11.9479 11.6134 11.8654 11.6947 11.801C11.776 11.7366 11.8713 11.692 11.9729 11.6708L13.1249 11.5008C13.3142 11.473 13.5635 11.5719 13.6815 11.7208L14.4049 12.6319C14.4645 12.7169 14.5033 12.8146 14.5184 12.9172C14.5335 13.0198 14.5243 13.1245 14.4918 13.223L14.0632 14.3052C13.9931 14.483 13.7827 14.6497 13.5958 14.6763L12.4426 14.8452L12.4415 14.8474Z" fill="white"/>
<path d="M27.9727 17.3584C27.7835 17.3862 27.5353 17.2873 27.4162 17.1384L26.548 16.0406C26.4883 15.9557 26.4493 15.8581 26.434 15.7555C26.4187 15.6529 26.4277 15.5481 26.4601 15.4495L26.9743 14.1473C27.0444 13.9695 27.2526 13.8029 27.4418 13.7762L28.8309 13.5729C28.9344 13.5638 29.0386 13.579 29.1352 13.6171C29.2318 13.6553 29.3182 13.7155 29.3874 13.7929L30.2556 14.8906C30.3153 14.9756 30.3543 15.0732 30.3696 15.1758C30.3849 15.2784 30.3759 15.3832 30.3435 15.4818L29.8293 16.7818C29.7592 16.9595 29.551 17.1262 29.3618 17.1529L27.9727 17.3584Z" fill="white"/>
<path d="M32.6314 18.411C32.5279 18.4201 32.4237 18.4049 32.3271 18.3667C32.2304 18.3286 32.1441 18.2684 32.0749 18.191L31.4516 17.4066C31.392 17.3216 31.3532 17.2239 31.3381 17.1213C31.323 17.0187 31.3322 16.9139 31.3648 16.8155L31.7321 15.8877C31.776 15.7936 31.8413 15.711 31.9229 15.6466C32.0044 15.5822 32.0999 15.5377 32.2018 15.5166L33.2035 15.3699C33.3927 15.3421 33.6409 15.441 33.76 15.5899L34.3811 16.3744C34.498 16.5232 34.5369 16.7888 34.4701 16.9655L34.1028 17.8955C34.0327 18.0732 33.8246 18.2399 33.6354 18.2666L32.6336 18.411H32.6314Z" fill="white"/>
<path d="M37.1788 18.9624C37.0751 18.9716 36.9707 18.9566 36.8739 18.9184C36.777 18.8802 36.6905 18.8199 36.6212 18.7424L36.0402 18.0113C35.9222 17.8624 35.8821 17.5968 35.9533 17.4224L36.2984 16.5502C36.3423 16.4561 36.4077 16.3735 36.4892 16.3091C36.5708 16.2447 36.6663 16.2001 36.7681 16.179L37.6953 16.0435C37.7989 16.0346 37.9031 16.0499 37.9997 16.0883C38.0964 16.1267 38.1827 16.187 38.2518 16.2646L38.8328 16.9979C38.8925 17.0828 38.9316 17.1805 38.9468 17.2831C38.9621 17.3857 38.9531 17.4905 38.9207 17.589L38.5757 18.4579C38.5317 18.552 38.4664 18.6346 38.3848 18.699C38.3033 18.7634 38.2078 18.808 38.106 18.829L37.1788 18.9657V18.9624Z" fill="white"/>
<path d="M41.0733 18.1112C40.8841 18.139 40.6359 18.0401 40.5168 17.8912L40.3543 17.6856C40.2363 17.5367 40.1985 17.2701 40.2652 17.0945L40.3632 16.8478C40.4344 16.6701 40.6414 16.5034 40.8307 16.4778L41.09 16.4401C41.1938 16.4309 41.2983 16.4462 41.3951 16.4846C41.4919 16.523 41.5784 16.5835 41.6476 16.6612L41.8146 16.869C41.8741 16.9537 41.9131 17.0512 41.9283 17.1536C41.9436 17.256 41.9348 17.3606 41.9025 17.459L41.8068 17.7034C41.7629 17.7975 41.6975 17.88 41.616 17.9445C41.5344 18.0089 41.4389 18.0534 41.3371 18.0745L41.0733 18.1134V18.1112Z" fill="white"/>
<path d="M1.1043 14.8535C0.915081 14.8813 0.666873 14.7824 0.547777 14.6335L0.527742 14.6079C0.468209 14.5229 0.429362 14.4252 0.414291 14.3226C0.399219 14.22 0.408339 14.1153 0.440925 14.0168L0.452055 13.9857C0.522177 13.8079 0.732542 13.6413 0.919534 13.6146L0.950699 13.6102C1.0543 13.6008 1.15867 13.6157 1.25549 13.6537C1.3523 13.6917 1.43889 13.7517 1.50833 13.829L1.53059 13.8568C1.64858 14.0057 1.68865 14.2713 1.61964 14.4457L1.60851 14.4757C1.56481 14.5699 1.4997 14.6526 1.41835 14.7172C1.337 14.7818 1.24166 14.8266 1.13992 14.8479L1.1043 14.8524V14.8535Z" fill="white"/>
<path d="M3.53932 9.87011C3.3501 9.89789 3.10189 9.799 2.9828 9.65011L2.87149 9.50789C2.81196 9.42289 2.77311 9.3252 2.75804 9.22258C2.74297 9.11997 2.75209 9.01526 2.78468 8.91678L2.85146 8.75011C2.89529 8.65614 2.96046 8.57368 3.04181 8.50925C3.12315 8.44483 3.21842 8.40023 3.32005 8.379L3.50036 8.35233C3.68958 8.32455 3.93779 8.42344 4.05688 8.57233L4.16819 8.71455C4.28617 8.86344 4.32401 9.129 4.25389 9.30566L4.18711 9.47233C4.14317 9.56643 4.07782 9.64898 3.99628 9.71341C3.91473 9.77784 3.81924 9.82236 3.71741 9.84344L3.53932 9.87011Z" fill="white"/>
<path d="M7.70814 14.3336C7.60462 14.3426 7.50042 14.3275 7.4038 14.2893C7.30719 14.2511 7.22084 14.1909 7.15162 14.1136L6.65409 13.488C6.5361 13.3391 6.49826 13.0736 6.56504 12.8969L6.86 12.1524C6.90383 12.0585 6.969 11.976 7.05035 11.9116C7.13169 11.8472 7.22696 11.8026 7.32859 11.7813L8.11662 11.6647C8.22014 11.6556 8.32435 11.6707 8.42096 11.7089C8.51757 11.7471 8.60392 11.8073 8.67315 11.8847L9.17068 12.5102C9.28866 12.6591 9.32873 12.9247 9.25972 13.0991L8.96476 13.8436C8.92093 13.9375 8.85576 14.02 8.77441 14.0844C8.69307 14.1488 8.5978 14.1934 8.49617 14.2147L7.70814 14.3313V14.3336Z" fill="white"/>
<path d="M3.76656 13.9658C3.57734 13.9935 3.32802 13.8946 3.21004 13.7458L2.88614 13.3324C2.82661 13.2474 2.78776 13.1497 2.77269 13.0471C2.75762 12.9445 2.76674 12.8398 2.79932 12.7413L2.99188 12.2546C3.03571 12.1607 3.10088 12.0782 3.18223 12.0138C3.26357 11.9494 3.35884 11.9048 3.46047 11.8835L3.97915 11.8058C4.16837 11.7769 4.41658 11.8769 4.53567 12.0246L4.86179 12.4358C4.92151 12.5207 4.96056 12.6183 4.97582 12.7209C4.99109 12.8235 4.98215 12.9283 4.94972 13.0269L4.75605 13.5158C4.68593 13.6935 4.47557 13.8602 4.28858 13.8869L3.76878 13.9624L3.76656 13.9658Z" fill="white"/>
<path d="M9.44695 18.7076C9.25774 18.7354 9.00841 18.6365 8.89043 18.4876L8.31387 17.7576C8.25434 17.6726 8.2155 17.575 8.20042 17.4723C8.18535 17.3697 8.19447 17.265 8.22706 17.1665L8.56876 16.3043C8.63888 16.1265 8.84925 15.9599 9.03624 15.9332L9.95784 15.7976C10.1471 15.7699 10.3964 15.8688 10.5144 16.0176L11.0898 16.7443C11.1495 16.8292 11.1886 16.9269 11.2038 17.0295C11.2191 17.1321 11.2102 17.2369 11.1777 17.3354L10.836 18.2021C10.7659 18.3799 10.5555 18.5465 10.3686 18.5732L9.44695 18.7099V18.7076Z" fill="white"/>
<path d="M14.1687 19.4961C14.0652 19.5052 13.961 19.49 13.8644 19.4518C13.7678 19.4136 13.6814 19.3534 13.6122 19.2761L12.8175 18.2783C12.6995 18.1294 12.6617 17.8639 12.7307 17.6894L13.2026 16.5039C13.2465 16.4098 13.3119 16.3272 13.3934 16.2628C13.475 16.1984 13.5705 16.1538 13.6723 16.1327L14.9323 15.9461C15.1215 15.9183 15.3708 16.0172 15.4888 16.165L16.2813 17.165C16.341 17.2499 16.38 17.3475 16.3953 17.4501C16.4106 17.5528 16.4016 17.6575 16.3692 17.7561L15.9017 18.945C15.8316 19.1227 15.6212 19.2894 15.4343 19.3161L14.1732 19.5005L14.1687 19.4961Z" fill="white"/>
<path d="M19.2798 20.4502C19.1763 20.4592 19.0721 20.4441 18.9755 20.4059C18.8789 20.3677 18.7925 20.3075 18.7233 20.2302L17.8663 19.1557C17.7472 19.0068 17.7082 18.7413 17.7772 18.5646L18.2848 17.2868C18.3286 17.1929 18.3938 17.1104 18.4751 17.046C18.5565 16.9816 18.6517 16.937 18.7534 16.9157L20.1168 16.7135C20.2203 16.7044 20.3246 16.7196 20.4212 16.7578C20.5178 16.796 20.6041 16.8561 20.6734 16.9335L21.5259 18.0079C21.6439 18.1568 21.684 18.4224 21.615 18.5991L21.1119 19.8791C21.0682 19.9732 21.0031 20.0559 20.9217 20.1205C20.8404 20.1852 20.745 20.2299 20.6433 20.2513L19.2776 20.4513L19.2798 20.4502Z" fill="white"/>
<path d="M24.6488 21.4005C24.5453 21.4095 24.4411 21.3944 24.3445 21.3562C24.2479 21.318 24.1615 21.2578 24.0923 21.1805L23.1707 20.0249C23.0527 19.876 23.0149 19.6105 23.0816 19.4338L23.6382 18.056C23.682 17.9621 23.7472 17.8796 23.8285 17.8152C23.9099 17.7507 24.0051 17.7061 24.1068 17.6849L25.5737 17.4694C25.6773 17.4603 25.7815 17.4754 25.8781 17.5136C25.9747 17.5518 26.061 17.612 26.1303 17.6894L27.0485 18.8449C27.1081 18.9299 27.1469 19.0276 27.162 19.1302C27.1771 19.2328 27.1679 19.3375 27.1353 19.436L26.59 20.8138C26.5198 20.9882 26.3095 21.156 26.1225 21.1849L24.6611 21.3982L24.6488 21.4005Z" fill="white"/>
<path d="M29.97 22.3229C29.8665 22.3319 29.7623 22.3168 29.6657 22.2786C29.5691 22.2404 29.4827 22.1802 29.4135 22.1029L28.6678 21.1617C28.5498 21.0117 28.5097 20.7462 28.5787 20.5695L29.0206 19.454C29.0918 19.2762 29.3011 19.1095 29.4903 19.0829L30.6813 18.9051C30.7849 18.8957 30.8892 18.9106 30.9861 18.9486C31.0829 18.9866 31.1695 19.0466 31.2389 19.124L31.9846 20.0662C32.1015 20.2151 32.1405 20.4817 32.0737 20.6573L31.6318 21.7762C31.588 21.8702 31.5228 21.9526 31.4415 22.017C31.3601 22.0815 31.2648 22.1261 31.1632 22.1473L29.9723 22.3217L29.97 22.3229Z" fill="white"/>
<path d="M34.8832 23.0195C34.7795 23.0288 34.6751 23.0137 34.5783 22.9755C34.4814 22.9373 34.3949 22.877 34.3256 22.7995L33.7056 22.0184C33.5887 21.8695 33.5498 21.6029 33.6166 21.4273L33.9839 20.5017C34.0551 20.324 34.2643 20.1573 34.4513 20.1295L35.4419 19.9851C35.5456 19.9758 35.6501 19.9909 35.7469 20.0291C35.8437 20.0673 35.9302 20.1275 35.9996 20.2051L36.6229 20.9862C36.6826 21.0711 36.7216 21.1687 36.7369 21.2714C36.7522 21.374 36.7432 21.4787 36.7108 21.5773L36.3379 22.5029C36.2667 22.6784 36.0575 22.8473 35.8682 22.874L34.8843 23.0184L34.8832 23.0195Z" fill="white"/>
<path d="M39.46 22.7485C39.2708 22.7763 39.0226 22.6774 38.9035 22.5296L38.5896 22.134C38.4716 21.9852 38.4338 21.7185 38.5006 21.5429L38.6865 21.0763C38.7566 20.9007 38.9647 20.7318 39.1539 20.704L39.6526 20.6296C39.7563 20.6203 39.8607 20.6354 39.9575 20.6736C40.0544 20.7118 40.1409 20.7721 40.2102 20.8496L40.5241 21.2452C40.5835 21.33 40.6222 21.4275 40.6373 21.5299C40.6523 21.6323 40.6433 21.7368 40.6109 21.8352L40.4239 22.3018C40.3527 22.4774 40.1423 22.6463 39.9542 22.6729L39.4578 22.7463L39.46 22.7485Z" fill="white"/>
<path d="M39.9804 27.2031C39.8767 27.2123 39.7723 27.1973 39.6755 27.1591C39.5787 27.1209 39.4921 27.0606 39.4228 26.9831L39.1045 26.5853C39.0445 26.5005 39.0053 26.4029 38.9898 26.3003C38.9744 26.1976 38.9831 26.0928 39.0154 25.9942L39.2024 25.522C39.2461 25.4278 39.3112 25.3451 39.3926 25.2805C39.4739 25.2159 39.5693 25.1711 39.671 25.1497L40.1774 25.0753C40.3666 25.0464 40.6149 25.1464 40.7339 25.2942L41.0501 25.692C41.1098 25.7769 41.1488 25.8745 41.1641 25.9771C41.1793 26.0797 41.1704 26.1845 41.138 26.2831L40.9488 26.7564C40.9051 26.8506 40.84 26.9333 40.7586 26.9979C40.6773 27.0625 40.5819 27.1073 40.4802 27.1286L39.9771 27.2031H39.9804Z" fill="white"/>
<path d="M36.3782 27.3598C36.2748 27.369 36.1706 27.3541 36.074 27.3161C35.9774 27.2781 35.891 27.2181 35.8217 27.1409L35.3241 26.5154C35.2646 26.4306 35.2257 26.3332 35.2104 26.2307C35.1951 26.1283 35.204 26.0238 35.2362 25.9254L35.5312 25.1854C35.5751 25.0913 35.6405 25.0087 35.722 24.9443C35.8036 24.8799 35.899 24.8353 36.0009 24.8143L36.7878 24.6998C36.8913 24.6907 36.9955 24.7059 37.0921 24.7441C37.1887 24.7823 37.2751 24.8425 37.3443 24.9198L37.8407 25.542C37.9006 25.6269 37.9399 25.7245 37.9553 25.8271C37.9708 25.9297 37.9621 26.0345 37.9298 26.1332L37.6359 26.872C37.5921 26.966 37.5269 27.0485 37.4456 27.1129C37.3642 27.1773 37.269 27.2219 37.1674 27.2432L36.3782 27.3598Z" fill="white"/>
<path d="M32.017 27.3721C31.9134 27.3815 31.809 27.3666 31.7122 27.3286C31.6154 27.2906 31.5288 27.2305 31.4594 27.1532L30.8194 26.3532C30.7003 26.2032 30.6635 25.9376 30.7303 25.761L31.1088 24.8165C31.18 24.6387 31.3904 24.4721 31.5785 24.4432L32.5913 24.2921C32.7806 24.2632 33.0288 24.3632 33.1479 24.5121L33.7823 25.3121C33.8412 25.3976 33.8797 25.4954 33.8947 25.5981C33.9098 25.7008 33.901 25.8055 33.8691 25.9043L33.4929 26.851C33.4228 27.0254 33.2146 27.1954 33.0254 27.2232L32.0181 27.3721H32.017Z" fill="white"/>
<path d="M26.769 26.2673C26.6655 26.2763 26.5613 26.2612 26.4647 26.223C26.3681 26.1848 26.2817 26.1246 26.2125 26.0473L25.4189 25.0506C25.3593 24.9658 25.3204 24.8684 25.3051 24.766C25.2899 24.6635 25.2987 24.559 25.3309 24.4606L25.7984 23.2828C25.8424 23.1887 25.9077 23.1062 25.9893 23.0417C26.0708 22.9773 26.1663 22.9328 26.2681 22.9117L27.5225 22.7273C27.6262 22.718 27.7306 22.7331 27.8275 22.7713C27.9243 22.8095 28.0108 22.8697 28.0802 22.9473L28.8682 23.9406C28.9862 24.0895 29.024 24.355 28.9572 24.5295L28.4898 25.7073C28.4461 25.8014 28.381 25.8841 28.2996 25.9487C28.2183 26.0134 28.1229 26.0581 28.0212 26.0795L26.7668 26.2661L26.769 26.2673Z" fill="white"/>
<path d="M21.3014 25.0102C21.1978 25.0193 21.0936 25.0041 20.997 24.9659C20.9004 24.9277 20.8141 24.8675 20.7448 24.7902L19.8366 23.6457C19.7769 23.5606 19.7379 23.4627 19.7229 23.3599C19.7078 23.2571 19.717 23.1521 19.7498 23.0535L20.2885 21.698C20.3586 21.5202 20.5701 21.3535 20.756 21.3257L22.2029 21.1124C22.3921 21.0835 22.6415 21.1835 22.7594 21.3324L23.6666 22.4746C23.7265 22.5597 23.7656 22.6575 23.7809 22.7603C23.7961 22.8632 23.7871 22.9681 23.7545 23.0668L23.2158 24.428C23.1446 24.6035 22.9353 24.7613 22.7461 24.8002L21.2991 25.0113L21.3014 25.0102Z" fill="white"/>
<path d="M15.692 24.8898C15.5885 24.8988 15.4843 24.8837 15.3877 24.8455C15.291 24.8073 15.2047 24.7471 15.1355 24.6698L14.0959 23.362C14.0362 23.2771 13.9971 23.1794 13.9819 23.0768C13.9666 22.9742 13.9755 22.8694 14.008 22.7709L14.6201 21.2209C14.6638 21.1267 14.7289 21.044 14.8103 20.9794C14.8916 20.9148 14.987 20.87 15.0887 20.8487L16.7394 20.6042C16.8431 20.595 16.9475 20.61 17.0443 20.6482C17.1411 20.6864 17.2277 20.7467 17.297 20.8242L18.3388 22.1298C18.3987 22.2148 18.4378 22.3126 18.4531 22.4155C18.4684 22.5183 18.4593 22.6233 18.4267 22.722L17.8101 24.2731C17.7663 24.3671 17.7011 24.4495 17.6198 24.514C17.5384 24.5784 17.4431 24.623 17.3415 24.6442L15.6898 24.8909L15.692 24.8898Z" fill="white"/>
<path d="M11.4441 22.5272C11.2549 22.556 11.0056 22.4571 10.8876 22.3083L10.3022 21.5705C10.2426 21.4855 10.2038 21.3878 10.1887 21.2852C10.1736 21.1826 10.1828 21.0779 10.2153 20.9794L10.5604 20.1072C10.6305 19.9294 10.842 19.7738 11.0279 19.7349L11.9595 19.5983C12.063 19.5892 12.1672 19.6043 12.2638 19.6425C12.3604 19.6807 12.4468 19.7409 12.516 19.8183L13.0981 20.5516C13.1577 20.6366 13.1965 20.7343 13.2116 20.8369C13.2266 20.9395 13.2175 21.0442 13.1849 21.1427L12.8399 22.0149C12.7698 22.1927 12.5583 22.3483 12.3724 22.3883L11.4441 22.5272Z" fill="white"/>
<path d="M5.11713 18.5183C5.01362 18.5274 4.90941 18.5122 4.8128 18.474C4.71618 18.4358 4.62983 18.3757 4.56061 18.2983L4.1076 17.7272C4.04788 17.6423 4.00884 17.5447 3.99357 17.442C3.97831 17.3394 3.98724 17.2347 4.01967 17.1361L4.2868 16.4616C4.33063 16.3677 4.39581 16.2852 4.47715 16.2208C4.55849 16.1564 4.65376 16.1118 4.75539 16.0905L5.47553 15.985C5.57904 15.9759 5.68325 15.9911 5.77987 16.0293C5.87648 16.0674 5.96283 16.1276 6.03205 16.205L6.48617 16.7761C6.60416 16.925 6.642 17.1905 6.57299 17.365L6.30364 18.0394C6.2597 18.1335 6.19435 18.2161 6.1128 18.2805C6.03126 18.3449 5.93576 18.3895 5.83393 18.4105L5.11713 18.5183Z" fill="white"/>
<path d="M1.56029 18.5472C1.37107 18.575 1.12175 18.4761 1.00377 18.3283L0.758898 18.0172C0.640915 17.8683 0.603072 17.6027 0.67208 17.4261L0.816776 17.0616C0.860469 16.9675 0.925584 16.8848 1.00694 16.8201C1.08829 16.7555 1.18363 16.7108 1.28537 16.6894L1.67271 16.6316C1.86192 16.6039 2.11125 16.7027 2.22923 16.8505L2.4741 17.1616C2.59208 17.3105 2.62992 17.5761 2.56092 17.7527L2.41622 18.1172C2.37253 18.2114 2.30741 18.294 2.22606 18.3587C2.14471 18.4233 2.04937 18.4681 1.94763 18.4894L1.56029 18.5472Z" fill="white"/>
<path d="M7.37462 23.366C7.27111 23.3751 7.1669 23.3599 7.07029 23.3217C6.97367 23.2836 6.88732 23.2234 6.8181 23.146L6.11466 22.2605C6.05512 22.1755 6.01628 22.0778 6.0012 21.9752C5.98613 21.8725 5.99525 21.7678 6.02784 21.6694L6.44523 20.6138C6.51535 20.4382 6.72572 20.2805 6.91271 20.2416L8.03243 20.0749C8.13585 20.0657 8.24001 20.0807 8.33661 20.1187C8.43322 20.1567 8.51962 20.2166 8.58895 20.2938L9.29796 21.1827C9.41594 21.3316 9.45379 21.5971 9.38478 21.7716L8.96405 22.8271C8.92011 22.9212 8.85476 23.0038 8.77322 23.0682C8.69167 23.1326 8.59618 23.1772 8.49434 23.1982L7.37017 23.3627L7.37462 23.366Z" fill="white"/>
<path d="M11.1616 27.5629C11.0582 27.5721 10.954 27.5571 10.8574 27.5191C10.7608 27.4811 10.6744 27.4212 10.6051 27.344L9.71463 26.224C9.59665 26.0751 9.55881 25.8095 9.62559 25.6329L10.1543 24.3018C10.1981 24.2078 10.2633 24.1253 10.3446 24.0609C10.426 23.9965 10.5212 23.9519 10.6229 23.9307L12.0364 23.7218C12.2257 23.6929 12.475 23.7929 12.593 23.9418L13.4867 25.064C13.6047 25.2129 13.6448 25.4784 13.5736 25.6529L13.0449 26.9829C12.9747 27.1573 12.7633 27.3273 12.5752 27.354L11.1582 27.5618L11.1616 27.5629Z" fill="white"/>
<path d="M18.7076 28.2535C18.6041 28.2626 18.4999 28.2474 18.4032 28.2092C18.3066 28.171 18.2203 28.1109 18.1511 28.0335L17.4855 27.1968C17.3675 27.048 17.3296 26.7824 17.3986 26.608L17.7927 25.6191C17.8366 25.525 17.9019 25.4424 17.9835 25.378C18.065 25.3136 18.1605 25.269 18.2624 25.248L19.3198 25.0924C19.4233 25.0833 19.5275 25.0985 19.6241 25.1367C19.7207 25.1749 19.8071 25.235 19.8763 25.3124L20.5374 26.1457C20.6554 26.2946 20.6955 26.5613 20.6242 26.7368L20.2291 27.7302C20.1853 27.8241 20.1201 27.9066 20.0388 27.971C19.9574 28.0355 19.8622 28.0801 19.7605 28.1013L18.7076 28.2546V28.2535Z" fill="white"/>
<path d="M14.7003 30.8598C14.5968 30.8689 14.4926 30.8537 14.396 30.8155C14.2994 30.7773 14.213 30.7172 14.1438 30.6398L13.339 29.6287C13.2793 29.5438 13.2403 29.4461 13.225 29.3435C13.2098 29.2409 13.2187 29.1361 13.2511 29.0376L13.7264 27.8376C13.7965 27.662 14.0069 27.4931 14.1939 27.4653L15.4739 27.2765C15.6631 27.2476 15.9124 27.3476 16.0304 27.4965L16.8362 28.5109C16.8958 28.5959 16.9346 28.6936 16.9497 28.7962C16.9648 28.8988 16.9556 29.0035 16.923 29.102L16.4444 30.3042C16.3743 30.4787 16.1628 30.6465 15.9747 30.6765L14.6981 30.8653L14.7003 30.8598Z" fill="white"/>
<path d="M23.2737 29.8731C23.1698 29.8825 23.0651 29.8675 22.9681 29.8293C22.8711 29.7911 22.7844 29.7307 22.7149 29.6531L22.007 28.7597C21.9473 28.6748 21.9083 28.5772 21.893 28.4746C21.8777 28.3719 21.8867 28.2672 21.9191 28.1686L22.3376 27.1108C22.4088 26.9353 22.6192 26.7664 22.8084 26.7386L23.9359 26.5697C24.1251 26.5397 24.3745 26.6408 24.4924 26.7897L25.2014 27.6831C25.2614 27.7679 25.3006 27.8655 25.3161 27.9681C25.3315 28.0707 25.3228 28.1755 25.2905 28.2742L24.8731 29.332C24.8294 29.4261 24.7643 29.5088 24.6829 29.5734C24.6016 29.6381 24.5063 29.6828 24.4045 29.7042L23.2737 29.8708V29.8731Z" fill="white"/>
<path d="M28.4336 31.3359C28.2444 31.3636 27.9962 31.2647 27.8771 31.117L27.1158 30.1614C26.9989 30.0125 26.9599 29.7459 27.0267 29.5703L27.4753 28.4403C27.5192 28.3462 27.5846 28.2637 27.6661 28.1992C27.7476 28.1348 27.8431 28.0903 27.945 28.0692L29.1504 27.8914C29.2543 27.882 29.3589 27.897 29.4559 27.9352C29.553 27.9734 29.6397 28.0337 29.7091 28.1114L30.4694 29.0647C30.5289 29.1495 30.5678 29.247 30.5831 29.3494C30.5984 29.4518 30.5895 29.5563 30.5573 29.6547L30.1087 30.7825C30.0375 30.9581 29.8271 31.127 29.639 31.1547L28.4347 31.3325L28.4336 31.3359Z" fill="white"/>
<path d="M33.5695 31.885C33.466 31.8942 33.3619 31.8792 33.2653 31.8412C33.1687 31.8032 33.0823 31.7433 33.0129 31.6661L32.5154 31.0383C32.3974 30.8894 32.3596 30.6228 32.4264 30.4472L32.7213 29.7061C32.7914 29.5317 33.0018 29.3639 33.191 29.335L33.9702 29.2194C34.0736 29.2102 34.1777 29.2252 34.2743 29.2632C34.371 29.3012 34.4574 29.3612 34.5267 29.4383L35.0242 30.0639C35.1422 30.2128 35.18 30.4794 35.1133 30.6528L34.8183 31.3939C34.7471 31.5694 34.5367 31.7383 34.3475 31.7661L33.5684 31.8839L33.5695 31.885Z" fill="white"/>
<path d="M37.5051 31.2707C37.3159 31.2985 37.0677 31.1996 36.9486 31.0507L36.6147 30.6418C36.5548 30.5568 36.5156 30.4589 36.5004 30.3561C36.4851 30.2533 36.4941 30.1483 36.5268 30.0496L36.7304 29.5551C36.8006 29.3774 37.0109 29.2107 37.1979 29.184L37.7166 29.1062C37.9058 29.0785 38.1529 29.1773 38.2731 29.3262L38.607 29.7351C38.6667 29.8203 38.7057 29.9181 38.7208 30.021C38.7358 30.1238 38.7266 30.2287 38.6939 30.3273L38.5024 30.8085C38.4587 30.9026 38.3936 30.9853 38.3122 31.0499C38.2309 31.1146 38.1356 31.1593 38.0338 31.1807L37.5151 31.2585L37.5051 31.2707Z" fill="white"/>
<path d="M29.6434 36.0404C29.4542 36.0682 29.206 35.9693 29.0869 35.8204L28.3767 34.9204C28.2588 34.7704 28.2209 34.5049 28.2877 34.3282L28.7051 33.2682C28.7763 33.0926 28.9856 32.9237 29.1726 32.896L30.3079 32.7293C30.4115 32.7199 30.5158 32.7348 30.6127 32.7728C30.7095 32.8108 30.7961 32.8709 30.8655 32.9482L31.5779 33.846C31.6958 33.996 31.7337 34.2615 31.6647 34.4371L31.2417 35.5015C31.1705 35.676 30.9601 35.846 30.772 35.8726L29.6389 36.0393L29.6434 36.0404Z" fill="white"/>
<path d="M34.0517 35.0006C33.8625 35.0283 33.6143 34.9294 33.4952 34.7806L33.4429 34.7117C33.326 34.5617 33.2871 34.2961 33.3539 34.1194L33.3839 34.0417C33.4529 33.8639 33.6622 33.7083 33.8514 33.6683L33.9427 33.6572C34.0461 33.6474 34.1503 33.6623 34.2469 33.7005C34.3434 33.7388 34.4295 33.7993 34.4981 33.8772L34.5515 33.9439C34.6684 34.0939 34.7073 34.3594 34.6372 34.5361L34.6038 34.6172C34.5326 34.7928 34.3222 34.9617 34.1341 34.9894L34.0506 35.0006H34.0517Z" fill="white"/>
<path d="M26.5213 39.2169C26.4177 39.226 26.3135 39.2108 26.2169 39.1726C26.1203 39.1344 26.034 39.0743 25.9647 38.9969L25.4494 38.3491C25.3897 38.2642 25.3506 38.1666 25.3354 38.0639C25.3201 37.9613 25.329 37.8566 25.3615 37.758L25.6676 36.988C25.7114 36.8937 25.7766 36.8109 25.8582 36.7463C25.9398 36.6817 26.0353 36.637 26.1373 36.6158L26.9576 36.4936C27.1468 36.4636 27.395 36.5647 27.5141 36.7125L28.0317 37.3636C28.091 37.4484 28.1298 37.5459 28.1448 37.6483C28.1599 37.7507 28.1509 37.8552 28.1185 37.9536L27.8113 38.7258C27.74 38.9013 27.5297 39.068 27.3416 39.0958L26.5213 39.2158V39.2169Z" fill="white"/>
<path d="M24.3716 34.9954C24.1824 35.0243 23.9341 34.9243 23.815 34.7754L22.9324 33.6609C22.8144 33.512 22.7766 33.2454 22.8434 33.0698L23.3687 31.7365C23.4124 31.6423 23.4775 31.5596 23.5589 31.495C23.6402 31.4304 23.7356 31.3856 23.8373 31.3643L25.2453 31.1554C25.4345 31.1265 25.6827 31.2265 25.8018 31.3754L26.6856 32.492C26.8036 32.6409 26.8414 32.9076 26.7746 33.0831L26.2548 34.4165C26.211 34.5104 26.1458 34.5929 26.0645 34.6573C25.9831 34.7218 25.8879 34.7664 25.7862 34.7876L24.3705 34.9965L24.3716 34.9954Z" fill="white"/>
<path d="M19.395 32.8893C19.2916 32.8985 19.1874 32.8835 19.0908 32.8455C18.9942 32.8075 18.9078 32.7476 18.8385 32.6704L18.174 31.8348C18.1143 31.7499 18.0752 31.6523 18.06 31.5497C18.0447 31.447 18.0537 31.3423 18.0861 31.2437L18.479 30.2493C18.5227 30.1551 18.5878 30.0724 18.6691 30.0078C18.7505 29.9432 18.8458 29.8984 18.9476 29.8771L20.005 29.7237C20.1942 29.6948 20.4435 29.7948 20.5615 29.9437L21.226 30.7793C21.2859 30.8643 21.325 30.9622 21.3403 31.065C21.3555 31.1678 21.3465 31.2728 21.3139 31.3715L20.9221 32.3715C20.8784 32.4657 20.8133 32.5484 20.732 32.613C20.6506 32.6776 20.5553 32.7224 20.4535 32.7437L19.3961 32.8993L19.395 32.8893Z" fill="white"/>
<path d="M14.9038 35.3581C14.8003 35.3672 14.696 35.3521 14.5994 35.3139C14.5028 35.2757 14.4165 35.2155 14.3472 35.1381L13.587 34.1804C13.4691 34.0315 13.429 33.7659 13.5002 33.5915L13.9521 32.4581C13.9961 32.364 14.0614 32.2815 14.1429 32.2171C14.2245 32.1526 14.32 32.1081 14.4218 32.087L15.6317 31.907C15.8209 31.8792 16.0702 31.9781 16.1882 32.1259L16.9451 33.0837C17.0048 33.1688 17.0437 33.2667 17.0588 33.3695C17.0739 33.4724 17.0647 33.5773 17.0319 33.6759L16.5822 34.8115C16.5385 34.9056 16.4734 34.9883 16.3921 35.0529C16.3107 35.1176 16.2154 35.1623 16.1136 35.1837L14.9038 35.3615V35.3581Z" fill="white"/>
<path d="M20.2519 37.2269C20.1484 37.236 20.0442 37.2208 19.9476 37.1826C19.851 37.1444 19.7646 37.0842 19.6954 37.0069L19.1144 36.2758C18.9964 36.1269 18.9563 35.8613 19.0276 35.6869L19.3726 34.818C19.4165 34.7239 19.4819 34.6413 19.5634 34.5769C19.645 34.5125 19.7405 34.468 19.8423 34.4469L20.7661 34.3113C20.8697 34.3019 20.9741 34.3168 21.0709 34.3548C21.1677 34.3928 21.2543 34.4529 21.3238 34.5302L21.9048 35.2613C21.9647 35.3461 22.0039 35.4437 22.0194 35.5464C22.0348 35.649 22.0261 35.7538 21.9938 35.8524L21.6521 36.7191C21.582 36.8969 21.3739 37.0635 21.1846 37.0902L20.2552 37.2258L20.2519 37.2269Z" fill="white"/>
<path d="M23.201 39.9437C23.0974 39.9531 22.9931 39.9382 22.8963 39.9002C22.7994 39.8622 22.7129 39.8021 22.6434 39.7248L22.3562 39.3648C22.2383 39.2159 22.1982 38.9503 22.2672 38.7737L22.4375 38.3437C22.5076 38.1659 22.7158 38.0103 22.905 37.9715L23.3613 37.9015C23.5505 37.8726 23.7988 37.9726 23.9178 38.1215L24.205 38.4826C24.2649 38.5678 24.3039 38.6659 24.319 38.7689C24.3341 38.872 24.3248 38.9771 24.2918 39.0759L24.1215 39.5037C24.0772 39.5977 24.0117 39.6803 23.9303 39.745C23.8488 39.8097 23.7536 39.8549 23.6518 39.877L23.1955 39.9437H23.201Z" fill="white"/>
<path d="M19.8873 39.9937C19.6981 40.0226 19.4487 39.9237 19.3308 39.7759L19.2807 39.7137C19.2211 39.6287 19.1823 39.531 19.1672 39.4284C19.1521 39.3258 19.1613 39.2211 19.1939 39.1226L19.2239 39.0493C19.294 38.8737 19.5055 38.7159 19.6914 38.6759L19.7726 38.6648C19.9619 38.6371 20.2101 38.7359 20.3292 38.8848L20.377 38.9459C20.4364 39.031 20.475 39.1288 20.4899 39.2314C20.5048 39.334 20.4955 39.4387 20.4627 39.5371L20.4327 39.6126C20.3625 39.7882 20.1511 39.9571 19.9652 39.9848L19.8873 39.9959V39.9937Z" fill="white"/>
<path d="M16.0301 39.6674C15.8409 39.6951 15.5927 39.5962 15.4736 39.4485L14.808 38.6085C14.7485 38.5235 14.7096 38.4258 14.6946 38.3232C14.6795 38.2205 14.6886 38.1158 14.7212 38.0174L15.113 37.0285C15.1567 36.9343 15.2218 36.8516 15.3031 36.787C15.3845 36.7224 15.4798 36.6776 15.5816 36.6562L16.639 36.5007C16.7424 36.4915 16.8465 36.5065 16.9432 36.5445C17.0398 36.5825 17.1262 36.6424 17.1955 36.7196L17.86 37.5562C17.9197 37.6411 17.9587 37.7388 17.974 37.8414C17.9893 37.944 17.9803 38.0488 17.9479 38.1474L17.555 39.1396C17.5113 39.2337 17.4462 39.3164 17.3648 39.3811C17.2835 39.4457 17.1882 39.4905 17.0864 39.5118L16.029 39.6696L16.0301 39.6674Z" fill="white"/>
<path d="M10.8187 37.4103C10.6295 37.4392 10.3813 37.3392 10.2622 37.1914L9.72233 36.5092C9.66262 36.424 9.62367 36.3262 9.6086 36.2233C9.59353 36.1205 9.60274 36.0156 9.63551 35.917L9.95384 35.1136C9.99767 35.0197 10.0628 34.9372 10.1442 34.8728C10.2255 34.8083 10.3208 34.7637 10.4224 34.7425L11.2839 34.6158C11.3874 34.6068 11.4916 34.6219 11.5883 34.6601C11.6849 34.6983 11.7712 34.7585 11.8404 34.8358L12.3803 35.5136C12.44 35.5985 12.479 35.6962 12.4943 35.7988C12.5096 35.9014 12.5006 36.0062 12.4682 36.1047L12.1499 36.9092C12.1062 37.0033 12.0411 37.086 11.9597 37.1507C11.8784 37.2153 11.783 37.26 11.6813 37.2814L10.8198 37.4081L10.8187 37.4103Z" fill="white"/>
<path d="M10.1508 32.2047C10.0473 32.2139 9.94319 32.199 9.84658 32.161C9.74998 32.123 9.66358 32.063 9.59424 31.9858L8.87967 31.0881C8.76169 30.9392 8.72384 30.6736 8.79063 30.4969L9.21358 29.4325C9.28371 29.2569 9.49518 29.0881 9.68106 29.0603L10.8141 28.8914C11.0034 28.8636 11.2527 28.9625 11.3707 29.1136L12.0808 30.0103C12.1407 30.0953 12.1798 30.1932 12.1951 30.296C12.2104 30.3988 12.2013 30.5038 12.1687 30.6025L11.748 31.6669C11.7043 31.7611 11.6392 31.8438 11.5578 31.9084C11.4765 31.973 11.3811 32.0178 11.2794 32.0392L10.1497 32.2058L10.1508 32.2047Z" fill="white"/>
<path d="M7.36878 34.2778C7.26527 34.2869 7.16106 34.2718 7.06445 34.2336C6.96783 34.1954 6.88148 34.1352 6.81226 34.0578L6.37149 33.5023C6.31196 33.4173 6.27311 33.3196 6.25804 33.217C6.24297 33.1144 6.25209 33.0097 6.28468 32.9112L6.54513 32.2445C6.61525 32.069 6.82673 31.9001 7.01261 31.8745L7.71048 31.7745C7.8997 31.7456 8.14902 31.8456 8.26701 31.9945L8.70443 32.5456C8.76415 32.6305 8.8032 32.7282 8.81846 32.8308C8.83373 32.9334 8.82479 33.0382 8.79236 33.1367L8.53414 33.7923C8.46401 33.9701 8.25365 34.1256 8.06666 34.1645L7.36767 34.2678L7.36878 34.2778Z" fill="white"/>
<path d="M4.16312 32.3189C3.9739 32.3467 3.72569 32.2478 3.6066 32.0967L3.36173 31.7889C3.30219 31.7039 3.26335 31.6062 3.24828 31.5036C3.2332 31.401 3.24232 31.2962 3.27491 31.1978L3.4196 30.8333C3.48973 30.6578 3.70121 30.4889 3.88708 30.4611L4.27665 30.4033C4.38006 30.3935 4.48432 30.4084 4.58087 30.4466C4.67742 30.4848 4.76351 30.5454 4.83206 30.6233L5.07693 30.93C5.19491 31.0811 5.23275 31.3455 5.16597 31.5233L5.02127 31.89C4.97744 31.984 4.91227 32.0664 4.83093 32.1308C4.74958 32.1953 4.65431 32.2399 4.55268 32.2611L4.16312 32.3167V32.3189Z" fill="white"/>
<path d="M6.6972 28.396C6.50799 28.4238 6.25866 28.3249 6.14068 28.1771L5.45059 27.3038C5.39106 27.2188 5.35221 27.1211 5.33714 27.0185C5.32207 26.9158 5.33119 26.8111 5.36378 26.7126L5.7756 25.6793C5.81943 25.5853 5.88461 25.5029 5.96595 25.4385C6.04729 25.374 6.14256 25.3294 6.24419 25.3082L7.34611 25.1471C7.44962 25.138 7.55383 25.1532 7.65044 25.1914C7.74705 25.2296 7.83341 25.2897 7.90263 25.3671L8.59494 26.2382C8.71292 26.3871 8.75077 26.6526 8.68398 26.8271L8.27216 27.8604C8.22847 27.9546 8.16335 28.0373 8.082 28.1019C8.00065 28.1665 7.90531 28.2113 7.80357 28.2326L6.69943 28.396H6.6972Z" fill="white"/>
<path d="M3.83756 23.4168C3.73405 23.4258 3.62984 23.4107 3.53323 23.3725C3.43661 23.3343 3.35026 23.2741 3.28104 23.1968L2.91373 22.7357C2.85403 22.6505 2.81508 22.5526 2.80001 22.4498C2.78493 22.347 2.79415 22.2421 2.82692 22.1434L3.04507 21.5934C3.0889 21.4995 3.15408 21.417 3.23542 21.3526C3.31676 21.2882 3.41203 21.2436 3.51367 21.2223L4.10024 21.1357C4.20374 21.126 4.30806 21.141 4.40462 21.1794C4.50117 21.2179 4.58721 21.2787 4.65565 21.3568L5.02073 21.8157C5.13871 21.9668 5.17655 22.2323 5.10754 22.409L4.89161 22.9534C4.82149 23.1279 4.61113 23.2979 4.42413 23.3257L3.83756 23.4145V23.4168Z" fill="white"/>
<path d="M0.890567 23.8417C0.70135 23.8706 0.452028 23.7706 0.334045 23.6217L0.111437 23.3551C-0.00654595 23.2062 -0.0443894 22.9406 0.0246193 22.7662L0.14928 22.4517C0.219402 22.274 0.43088 22.1073 0.618984 22.0795L0.956237 22.0284C1.14545 21.9995 1.39366 22.0995 1.51276 22.2473L1.73537 22.514C1.79509 22.5989 1.83413 22.6965 1.8494 22.7991C1.86466 22.9018 1.85572 23.0065 1.8233 23.1051L1.69864 23.4195C1.65494 23.5137 1.58983 23.5964 1.50848 23.661C1.42713 23.7256 1.33178 23.7704 1.23005 23.7917L0.890567 23.8417Z" fill="white"/>
<path d="M2.88323 28.0631C2.69402 28.092 2.44469 27.992 2.32671 27.8442L1.97276 27.3998C1.85478 27.2509 1.81694 26.9853 1.88595 26.8109L2.10856 26.2831C2.17979 26.1075 2.39016 25.9387 2.57826 25.9109L3.13478 25.8275C3.324 25.7975 3.57332 25.8987 3.6913 26.0464L4.04525 26.4931C4.16323 26.642 4.20108 26.9064 4.13207 27.082L3.92282 27.6064C3.85269 27.782 3.64122 27.9509 3.45311 27.9787L2.89325 28.062L2.88323 28.0631Z" fill="white"/>
<path d="M56.3198 14.562C56.4287 14.6913 56.5101 14.8414 56.5591 15.0031C56.6257 15.154 56.6634 15.3161 56.6704 15.4809C56.6704 15.7498 56.529 16.0142 56.2474 16.2587C55.9658 16.5031 55.5851 16.7298 55.1077 16.9009C54.6178 17.0756 54.1007 17.1621 53.5806 17.1564C52.6857 17.1564 51.8943 16.9542 51.2075 16.5509C50.5208 16.1475 49.9876 15.5653 49.607 14.8064C49.2263 14.0475 49.0371 13.1475 49.0371 12.1064C49.0371 11.042 49.2397 10.1064 49.6437 9.33421C50.06 8.55088 50.631 7.95088 51.3545 7.53421C52.0891 7.11754 52.9127 6.90977 53.8187 6.90977C54.7248 6.90977 55.4327 7.12977 55.9335 7.57088C56.4489 7.99977 56.706 8.54866 56.706 9.2231C56.706 9.79866 56.5591 10.2509 56.2641 10.582C56.1197 10.7391 55.943 10.8631 55.7461 10.9456C55.5491 11.028 55.3367 11.067 55.1232 11.0598C54.9426 11.0628 54.7634 11.0267 54.5981 10.9538C54.4328 10.8809 54.2854 10.773 54.166 10.6375C53.9078 10.3564 53.7798 10.0131 53.7798 9.60977C53.772 9.3752 53.8225 9.14235 53.9267 8.93199C54.0298 8.74314 54.1672 8.5751 54.3319 8.43643C54.136 8.32532 53.9579 8.26977 53.7976 8.26977C53.3802 8.26977 53.0129 8.52088 52.6846 9.0231C52.3651 9.51199 52.2059 10.3264 52.2059 11.4653C52.2059 12.7631 52.3952 13.6875 52.7758 14.2742C53.1543 14.8375 53.7141 15.1187 54.4498 15.1187C54.7928 15.1187 55.1339 15.0693 55.4627 14.972C55.8055 14.8742 56.0882 14.7331 56.3086 14.5498L56.3198 14.562ZM57.4595 14.3042C57.4595 13.4842 57.7289 12.8353 58.2687 12.3575C58.8085 11.8798 59.6043 11.642 60.6595 11.642C61.0362 11.6428 61.4119 11.6797 61.7815 11.752C62.1733 11.8253 62.4938 11.9231 62.7387 12.0453V9.60421C62.7387 9.11532 62.6274 8.76532 62.3714 8.55754C62.1265 8.33754 61.7948 8.22754 61.3785 8.22754C60.9734 8.22754 60.6439 8.32532 60.3857 8.52088C60.6083 8.59421 60.7908 8.7231 60.901 8.90643C61.019 9.08039 61.0829 9.28525 61.0847 9.49532C61.0847 9.88754 60.9433 10.2064 60.6617 10.4509C60.3801 10.6953 60.024 10.8175 59.5932 10.8175C59.1257 10.8175 58.7529 10.6842 58.4713 10.4131C58.1897 10.142 58.0483 9.79532 58.0483 9.36643C58.0483 8.93754 58.1952 8.5331 58.4902 8.14421C58.7851 7.75532 59.2315 7.45865 59.8325 7.22643C60.4447 7.00421 61.1993 6.87754 62.0953 6.87754C63.3197 6.87754 64.229 7.12865 64.8557 7.63088C65.4812 8.11977 65.794 8.8531 65.794 9.79754V14.6642C65.794 15.2531 66.0756 15.6064 66.6399 15.7309V16.3198C66.4807 16.5398 66.2169 16.712 65.8608 16.8342C65.4992 16.9555 65.1203 17.0174 64.7388 17.0175C63.904 17.0175 63.3163 16.7287 62.9735 16.1542C62.6919 16.3987 62.348 16.6075 61.944 16.7787C61.5388 16.9375 61.0791 17.0175 60.5638 17.0175C59.6444 17.0175 58.8964 16.7664 58.3199 16.2642C57.7556 15.7498 57.474 15.0953 57.474 14.2998L57.4595 14.3042ZM62.7387 13.4598C62.6051 13.3742 62.4382 13.3009 62.2423 13.2398C62.0586 13.1787 61.8805 13.1475 61.708 13.1475C61.5519 13.1421 61.3964 13.1686 61.2509 13.2254C61.1054 13.2821 60.9731 13.3679 60.8621 13.4775C60.6417 13.6853 60.5315 13.992 60.5315 14.3953C60.5315 14.7253 60.6428 15.0009 60.8621 15.222C61.0825 15.4298 61.3774 15.5331 61.7447 15.5331C61.9254 15.5335 62.1052 15.5088 62.279 15.4598C62.4626 15.3987 62.6162 15.3264 62.7387 15.2398V13.4598ZM73.7022 6.9231C74.2542 6.9231 74.6594 7.06421 74.9265 7.34532C75.1936 7.62643 75.3127 8.01199 75.3127 8.50088C75.3127 9.02754 75.1714 9.45643 74.8898 9.78643C74.6204 10.1164 74.252 10.282 73.7856 10.282C73.3805 10.282 73.051 10.1653 72.7928 9.9331C72.5479 9.71088 72.4255 9.42532 72.4255 9.10643C72.4255 8.91088 72.4444 8.75754 72.4811 8.64754C72.0393 8.75866 71.6653 8.94754 71.3592 9.21643V14.7253C71.3592 15.0309 71.4037 15.2642 71.4883 15.4231C71.5729 15.582 71.7399 15.7042 71.9847 15.7898C72.2407 15.8631 72.6225 15.9009 73.1256 15.9009C73.1294 16.0931 73.1047 16.2848 73.0521 16.4698C73.0032 16.6164 72.9108 16.7587 72.7761 16.892H67.8654C67.7307 16.7644 67.6238 16.6106 67.551 16.4402C67.4783 16.2697 67.4413 16.0862 67.4424 15.9009C67.7986 15.9009 68.049 15.8275 68.197 15.6809C68.3562 15.522 68.4363 15.2587 68.4363 14.9031V9.58532C68.4363 9.25532 68.344 9.02199 68.1603 8.88754C67.9889 8.75421 67.6761 8.68532 67.222 8.68532V7.85865C67.6272 7.63643 68.1603 7.41421 68.8226 7.2531C69.4971 7.06977 70.018 6.97754 70.3864 6.97754C70.6802 6.97754 70.8895 7.08199 71.0119 7.28865C71.1344 7.49532 71.1956 7.9131 71.1956 8.53754C71.416 8.12088 71.7655 7.75977 72.2441 7.41754C72.7227 7.07532 73.2124 6.92199 73.7155 6.92199L73.7022 6.9231ZM81.2853 6.97865C81.9662 6.97375 82.6349 7.15845 83.2164 7.51199C83.8064 7.85421 84.2772 8.38088 84.6322 9.08977C84.9873 9.79866 85.1665 10.6675 85.1665 11.6975C85.1665 12.8364 84.9394 13.8153 84.4853 14.6353C84.0434 15.4431 83.4435 16.0553 82.6822 16.4709C81.9209 16.8864 81.0761 17.0953 80.1444 17.0953C79.4724 17.089 78.8019 17.0277 78.1399 16.912C77.4164 16.8009 76.8521 16.6487 76.448 16.4531V5.03199C76.448 4.43199 76.0741 4.1431 75.3261 4.1431V3.55421C75.7312 3.2731 76.2577 3.02754 76.9066 2.82088C77.5689 2.6131 78.102 2.50977 78.5072 2.50977C78.801 2.50977 79.0103 2.57643 79.1327 2.71199C79.244 2.8231 79.3163 3.04865 79.3163 3.35421V5.96199L79.2607 7.70643C79.7282 7.22865 80.4016 6.99088 81.2842 6.99088L81.2853 6.97865ZM80.2001 15.7564C80.7399 15.7564 81.1751 15.4875 81.5057 14.9487C81.8363 14.4098 82.0021 13.5353 82.0021 12.3231C82.0021 11.0498 81.8185 10.1009 81.4501 9.47865C81.0939 8.85421 80.6153 8.54199 80.0031 8.54199C79.7548 8.53568 79.5106 8.60632 79.3041 8.74421V15.4109C79.5267 15.6331 79.8317 15.7598 80.1867 15.7598L80.2001 15.7564Z" fill="white"/>
<path d="M90.616 17.1313C89.267 17.1313 88.1895 16.709 87.3792 15.8646C86.57 15.009 86.1549 13.7902 86.1549 12.1979C86.1549 11.0713 86.3441 10.1113 86.7248 9.31571C87.1166 8.52016 87.6631 7.92016 88.3609 7.51571C89.0588 7.11127 89.8691 6.91016 90.7874 6.91016C91.67 6.91016 92.4425 7.10571 93.1047 7.49905C93.7792 7.87905 94.3001 8.44127 94.6686 9.18793C95.0492 9.9346 95.2384 10.8402 95.2384 11.9057C95.2384 13.0202 95.0425 13.9679 94.6485 14.7524C94.2679 15.5357 93.7291 16.1302 93.0302 16.5335C92.3312 16.9257 91.522 17.1224 90.6037 17.1224L90.616 17.1313ZM90.7629 15.7979C91.1925 15.7979 91.5108 15.5535 91.7201 15.0646C91.9294 14.5757 92.0317 13.669 92.0317 12.3468C92.0317 11.2335 91.9761 10.3757 91.8648 9.77682C91.7535 9.17793 91.6032 8.77682 91.4084 8.5546C91.3152 8.44698 91.1991 8.3615 91.0685 8.30441C90.938 8.24731 90.7963 8.22005 90.6538 8.2246C90.2242 8.2246 89.8992 8.46905 89.6788 8.95793C89.4706 9.44682 89.3671 10.3657 89.3671 11.7135C89.3671 12.8157 89.4228 13.6657 89.5341 14.2657C89.6454 14.8546 89.7979 15.2568 89.9938 15.4879C90.0918 15.5943 90.2114 15.6788 90.3445 15.7357C90.4777 15.7925 90.6214 15.8206 90.7662 15.8179L90.7629 15.7979ZM106.616 16.3979C106.432 16.5813 106.101 16.729 105.623 16.839C105.184 16.9461 104.733 17.0017 104.281 17.0046C103.753 17.0046 103.361 16.9068 103.103 16.7113C102.858 16.5157 102.736 16.2035 102.736 15.7746V10.0446C102.736 9.56682 102.631 9.2246 102.424 9.01682C102.217 8.80904 101.94 8.70571 101.596 8.70571C101.093 8.70571 100.67 8.90793 100.327 9.31127V14.9113C100.327 15.2668 100.401 15.5224 100.548 15.6824C100.707 15.8413 100.971 15.9213 101.327 15.9213C101.327 16.2879 101.185 16.6124 100.904 16.8946H96.7299C96.4361 16.6013 96.288 16.2768 96.288 15.9213C96.6553 15.9213 96.9191 15.8413 97.0672 15.6824C97.2152 15.5235 97.3065 15.2657 97.3065 14.9113V9.54793C97.3065 9.21793 97.2141 8.9846 97.0304 8.85016C96.8468 8.70349 96.5273 8.63016 96.0732 8.63016V7.80349C96.465 7.58349 97.0171 7.38127 97.7283 7.19793C98.4518 7.0146 98.9972 6.92238 99.3645 6.92238C99.6461 6.92238 99.8609 7.0146 100.008 7.19793C100.167 7.36905 100.259 7.70016 100.284 8.18905C100.606 7.79497 101.015 7.48082 101.479 7.27127C101.958 7.04905 102.498 6.92238 103.098 6.92238C103.98 6.92238 104.63 7.14905 105.048 7.58905C105.477 8.03016 105.691 8.75793 105.691 9.7746V14.7746C105.691 15.3746 105.985 15.7302 106.574 15.8413L106.593 16.3746L106.616 16.3979ZM56.3198 30.719C56.4287 30.8483 56.5101 30.9984 56.5591 31.1602C56.6257 31.3111 56.6634 31.4731 56.6704 31.6379C56.6704 31.9068 56.529 32.1713 56.2474 32.4157C55.9658 32.6602 55.5851 32.8868 55.1077 33.0579C54.6178 33.2326 54.1007 33.3192 53.5806 33.3135C52.6857 33.3135 51.8943 33.1113 51.2075 32.7079C50.5208 32.3046 49.9876 31.7224 49.607 30.9635C49.2263 30.2046 49.0371 29.3046 49.0371 28.2635C49.0371 27.1968 49.2397 26.2635 49.6437 25.4913C50.06 24.7079 50.631 24.1079 51.3545 23.6913C52.0891 23.2746 52.9127 23.0668 53.8187 23.0668C54.7248 23.0668 55.4327 23.2868 55.9335 23.7279C56.4489 24.1568 56.706 24.7057 56.706 25.3802C56.706 25.9557 56.5591 26.4079 56.2641 26.739C56.1197 26.8961 55.943 27.0201 55.7461 27.1026C55.5491 27.1851 55.3367 27.224 55.1232 27.2168C54.9426 27.2199 54.7634 27.1837 54.5981 27.1108C54.4328 27.0379 54.2854 26.93 54.166 26.7946C53.9078 26.5135 53.7798 26.1702 53.7798 25.7668C53.772 25.5323 53.8225 25.2994 53.9267 25.089C54.0298 24.9002 54.1672 24.7322 54.3319 24.5935C54.136 24.4824 53.9579 24.4268 53.7976 24.4268C53.3802 24.4268 53.0129 24.6779 52.6846 25.1802C52.3651 25.669 52.2059 26.4835 52.2059 27.6224C52.2059 28.9202 52.3952 29.8446 52.7758 30.4313C53.1543 30.9946 53.7141 31.2757 54.4498 31.2757C54.7928 31.2758 55.1339 31.2264 55.4627 31.129C55.8055 31.0313 56.0882 30.8902 56.3086 30.7068L56.3198 30.719ZM61.9963 33.289C60.6473 33.289 59.5698 32.8668 58.7595 32.0224C57.9504 31.1668 57.5352 29.9479 57.5352 28.3557C57.5352 27.229 57.7244 26.269 58.1051 25.4735C58.4969 24.6779 59.0434 24.0779 59.7412 23.6735C60.4391 23.269 61.2494 23.0679 62.1677 23.0679C63.0503 23.0679 63.8228 23.2635 64.485 23.6568C65.1595 24.0346 65.6804 24.599 66.0489 25.3457C66.4295 26.0924 66.6187 26.9979 66.6187 28.0635C66.6187 29.1779 66.4229 30.1257 66.0288 30.9102C65.6482 31.6935 65.1095 32.2879 64.4105 32.6913C63.7115 33.0835 62.9023 33.2802 61.984 33.2802L61.9963 33.289ZM62.1432 31.9557C62.5728 31.9557 62.8912 31.7113 63.1004 31.2224C63.3097 30.7335 63.4121 29.8268 63.4121 28.5046C63.4121 27.3913 63.3564 26.5335 63.2451 25.9346C63.1338 25.3357 62.9813 24.9346 62.7854 24.7046C62.6917 24.5976 62.5754 24.5125 62.445 24.4555C62.3146 24.3984 62.1731 24.3708 62.0308 24.3746C61.6011 24.3746 61.2761 24.619 61.0558 25.1079C60.8476 25.5968 60.7441 26.5157 60.7441 27.8635C60.7441 28.9657 60.7998 29.8157 60.9111 30.4157C61.0224 31.0046 61.1748 31.4068 61.3707 31.6379C61.4687 31.7445 61.5882 31.8292 61.7214 31.8863C61.8545 31.9433 61.9983 31.9716 62.1432 31.969V31.9557Z" fill="white"/>
<path d="M68.6417 21.3015C68.6417 20.9959 68.5493 20.7682 68.3657 20.6237C68.1942 20.4648 67.8692 20.3848 67.3906 20.3848V19.6515C67.8325 19.407 68.3901 19.1982 69.0646 19.027C69.7391 18.8559 70.2845 18.7715 70.7008 18.7715C70.9947 18.7715 71.2039 18.8326 71.3263 18.9548C71.4488 19.077 71.51 19.2915 71.51 19.597V31.0548C71.51 31.4348 71.5835 31.697 71.7304 31.8437C71.8895 31.9904 72.1533 32.0637 72.5206 32.0637C72.5206 32.4059 72.3737 32.737 72.0788 33.0548H68.0495C67.7679 32.7493 67.6266 32.4182 67.6266 32.0637C67.9828 32.0637 68.2388 31.9904 68.399 31.8437C68.5582 31.6848 68.6383 31.4215 68.6383 31.0548V21.3015H68.6417Z" fill="white"/>
<path d="M74.5147 21.3015C74.5147 20.9959 74.4223 20.7682 74.2387 20.6237C74.0673 20.4648 73.7423 20.3848 73.2637 20.3848V19.6515C73.7056 19.407 74.2632 19.1982 74.9377 19.027C75.6122 18.8559 76.1576 18.7715 76.5739 18.7715C76.8677 18.7715 77.077 18.8326 77.1994 18.9548C77.3218 19.077 77.383 19.2915 77.383 19.597V31.0548C77.383 31.4348 77.4565 31.697 77.6034 31.8437C77.7626 31.9904 78.0264 32.0637 78.3937 32.0637C78.3937 32.4059 78.2468 32.737 77.9518 33.0548H73.9226C73.641 32.7493 73.4996 32.4182 73.4996 32.0637C73.8558 32.0637 74.1118 31.9904 74.2721 31.8437C74.4313 31.6848 74.5114 31.4215 74.5114 31.0548V21.3015H74.5147Z" fill="white"/>
<path d="M84.3684 31.1785C85.1468 31.1769 85.903 30.9191 86.5199 30.4451C86.6178 30.5429 86.7035 30.6896 86.7759 30.8862C86.8482 31.0829 86.8872 31.2529 86.8872 31.4007C86.8872 31.6207 86.7403 31.8785 86.4453 32.1718C86.1515 32.4529 85.7408 32.6985 85.2132 32.9051C84.6978 33.1129 84.1157 33.2162 83.4657 33.2162C82.5586 33.2162 81.7627 33.0207 81.0749 32.6274C80.4004 32.2362 79.8795 31.6662 79.511 30.9196C79.1426 30.1729 78.959 29.2918 78.959 28.2751C78.959 27.2351 79.1549 26.3229 79.5489 25.5396C79.954 24.7562 80.5061 24.1562 81.204 23.7396C81.903 23.3107 82.6955 23.0974 83.577 23.0974C84.6923 23.0974 85.5805 23.4218 86.2439 24.0707C86.9072 24.7196 87.2367 25.6196 87.2367 26.7707C87.2367 27.3096 87.151 27.7374 86.9807 28.0562C86.8093 28.3618 86.5021 28.5151 86.0613 28.5151H82.0877C82.1612 30.2907 82.9225 31.1774 84.3695 31.1774L84.3684 31.1785ZM83.4779 24.3674C83.0973 24.3674 82.7789 24.5818 82.5207 25.0096C82.2647 25.4262 82.1223 26.1296 82.0978 27.1207H83.9565C84.1524 27.1207 84.2816 27.054 84.3428 26.9185C84.404 26.7829 84.4352 26.5762 84.4352 26.294C84.4352 25.5718 84.3494 25.0696 84.1792 24.7885C84.0089 24.5074 83.774 24.3662 83.4802 24.3662L83.4779 24.3674ZM95.4765 30.7196C95.5855 30.8489 95.6669 30.999 95.7159 31.1607C95.7825 31.3116 95.8202 31.4737 95.8272 31.6385C95.8272 31.9074 95.6858 32.1718 95.4042 32.4162C95.1226 32.6607 94.7419 32.8874 94.2633 33.0585C93.7734 33.2332 93.2564 33.3197 92.7362 33.314C91.8413 33.314 91.05 33.1118 90.3632 32.7085C89.6765 32.3051 89.1433 31.7229 88.7627 30.964C88.382 30.2051 88.1928 29.3051 88.1928 28.264C88.1928 27.1974 88.3954 26.264 88.7994 25.4918C89.2168 24.7085 89.7867 24.1085 90.5101 23.6918C91.2448 23.2751 92.0684 23.0674 92.9744 23.0674C93.8804 23.0674 94.5883 23.2874 95.0892 23.7285C95.6045 24.1574 95.8617 24.7062 95.8617 25.3807C95.8617 25.9562 95.7147 26.4085 95.4198 26.7396C95.2754 26.8966 95.0987 27.0207 94.9017 27.1031C94.7048 27.1856 94.4923 27.2246 94.2789 27.2174C94.0982 27.2204 93.919 27.1843 93.7538 27.1114C93.5885 27.0385 93.4411 26.9306 93.3217 26.7951C93.0635 26.514 92.9355 26.1707 92.9355 25.7674C92.9277 25.5328 92.9781 25.2999 93.0824 25.0896C93.1855 24.9007 93.3229 24.7327 93.4875 24.594C93.2916 24.4829 93.1136 24.4274 92.9533 24.4274C92.5359 24.4274 92.1686 24.6785 91.8491 25.1807C91.5308 25.6696 91.3705 26.484 91.3705 27.6229C91.3705 28.9207 91.5597 29.8451 91.9404 30.4318C92.3211 30.9951 92.8787 31.2762 93.6144 31.2762C93.9573 31.2761 94.2985 31.2267 94.6273 31.1296C94.9701 31.0318 95.2528 30.8907 95.4732 30.7074L95.4765 30.7196ZM100.461 24.9529V30.1307C100.461 30.4974 100.534 30.7551 100.681 30.9018C100.828 31.0351 101.037 31.104 101.307 31.104C101.563 31.0985 101.814 31.0359 102.042 30.9207C102.277 30.8157 102.484 30.6588 102.649 30.4618C102.778 30.579 102.867 30.7331 102.905 30.9029C102.966 31.0985 102.997 31.2762 102.997 31.4362C102.997 31.7174 102.899 31.9918 102.704 32.2629C102.508 32.534 102.214 32.7518 101.821 32.924C101.428 33.0962 100.956 33.1796 100.405 33.1796C99.5481 33.1796 98.8535 32.9351 98.327 32.4462C97.8117 31.9574 97.5546 31.1429 97.5546 30.004V24.9562H96.397V23.834C96.7154 23.7851 97.0226 23.5829 97.3164 23.2285C97.6225 22.8618 97.8807 22.4085 98.0889 21.8696C98.3092 21.3185 98.4506 20.774 98.5118 20.2362C98.7322 20.1996 98.9348 20.1807 99.1184 20.1807C99.5603 20.1807 99.8976 20.3096 100.093 20.5662C100.314 20.8107 100.424 21.0862 100.424 21.3929V23.3207H102.558C102.558 23.6874 102.539 24.0062 102.502 24.2762C102.471 24.5165 102.389 24.7474 102.263 24.954H100.46L100.461 24.9529ZM107.854 20.0685C107.854 20.5951 107.687 21.0174 107.357 21.3351C107.039 21.6418 106.609 21.794 106.069 21.794C105.542 21.794 105.119 21.6407 104.801 21.3351C104.494 21.0174 104.341 20.5951 104.341 20.0685C104.341 19.554 104.5 19.1385 104.819 18.8196C105.15 18.5007 105.58 18.3418 106.107 18.3418C106.635 18.3418 107.058 18.5007 107.376 18.8196C107.694 19.1385 107.854 19.5529 107.854 20.0685ZM107.504 31.0685C107.504 31.424 107.59 31.6796 107.76 31.8396C107.944 31.9862 108.22 32.0596 108.588 32.0596C108.589 32.2449 108.552 32.4284 108.48 32.5989C108.407 32.7693 108.3 32.9231 108.165 33.0507H104.008C103.873 32.9231 103.766 32.7693 103.694 32.5989C103.621 32.4284 103.584 32.2449 103.585 32.0596C103.952 32.0596 104.216 31.9862 104.364 31.8396C104.536 31.6807 104.62 31.4174 104.62 31.0618V25.7374C104.62 25.404 104.534 25.1485 104.364 25.004C104.205 24.8574 103.886 24.784 103.407 24.784V23.9762C103.701 23.7929 104.186 23.6029 104.896 23.4074C105.609 23.1996 106.21 23.0962 106.699 23.0962C106.981 23.0962 107.184 23.1629 107.306 23.2985C107.417 23.4096 107.49 23.6351 107.49 23.9407V31.0829L107.504 31.0685ZM113.307 28.1118L114.153 31.3251L114.999 28.1118L115.717 25.6151C115.758 25.4713 115.783 25.3233 115.791 25.174C115.791 24.9185 115.705 24.7274 115.532 24.6051C115.373 24.4718 115.141 24.4029 114.835 24.4029C114.835 23.9007 114.95 23.534 115.184 23.3007H118.751C118.996 23.5451 119.119 23.9118 119.119 24.4029C118.813 24.4029 118.579 24.4762 118.42 24.6229C118.261 24.7696 118.126 25.0151 118.015 25.3562L116.102 31.214C115.893 31.9362 115.66 32.444 115.403 32.7385C115.146 33.0329 114.753 33.1796 114.226 33.1796H112.314L109.42 25.3574C109.286 25.0018 109.15 24.7574 109.014 24.624C108.881 24.4774 108.658 24.404 108.352 24.404C108.352 23.9262 108.481 23.5596 108.738 23.3018H112.932C113.074 23.4474 113.181 23.6233 113.244 23.8162C113.316 24.0039 113.353 24.2031 113.354 24.404C113.098 24.404 112.887 24.4774 112.729 24.624C112.57 24.7574 112.489 24.9607 112.489 25.2296C112.489 25.3151 112.514 25.444 112.563 25.6151L113.318 28.1118H113.307ZM124.479 31.1785C125.252 31.1785 125.971 30.934 126.632 30.4451C126.73 30.5429 126.815 30.6896 126.888 30.8862C126.96 31.0829 126.999 31.2529 126.999 31.4007C126.999 31.6207 126.852 31.8785 126.557 32.1718C126.263 32.4529 125.853 32.6985 125.325 32.9051C124.811 33.1129 124.228 33.2162 123.578 33.2162C122.67 33.2162 121.875 33.0207 121.187 32.6274C120.505 32.228 119.96 31.6329 119.623 30.9196C119.256 30.1729 119.072 29.2918 119.072 28.2751C119.072 27.2351 119.268 26.3229 119.66 25.5396C120.065 24.7562 120.617 24.1562 121.316 23.7396C122.015 23.3107 122.805 23.0974 123.689 23.0974C124.804 23.0974 125.692 23.4218 126.356 24.0707C127.019 24.7196 127.349 25.6196 127.349 26.7707C127.349 27.3096 127.263 27.7374 127.093 28.0562C126.92 28.3618 126.614 28.5151 126.172 28.5151H122.198C122.272 30.2907 123.033 31.1774 124.48 31.1774L124.479 31.1785ZM123.589 24.3674C123.21 24.3674 122.89 24.5818 122.631 25.0096C122.375 25.4262 122.233 26.1296 122.208 27.1207H124.067C124.263 27.1207 124.392 27.054 124.454 26.9185C124.515 26.7829 124.546 26.5762 124.546 26.294C124.546 25.5718 124.46 25.0696 124.288 24.7885C124.115 24.5074 123.884 24.3674 123.589 24.3674Z" fill="white"/>
</g>
<defs>
<clipPath id="clip0_405_6672">
<rect width="128" height="40" fill="white"/>
</clipPath>
</defs>
</svg>
